<svg width="27" height="31" viewBox="0 0 27 31" fill="none" xmlns="http://www.w3.org/2000/svg">
<path d="M2.35714 27.6469C2.35714 28.3904 2.65064 29.1033 3.17306 29.629C3.69548 30.1547 4.40404 30.45 5.14286 30.45H21.8571C22.596 30.45 23.3045 30.1547 23.8269 29.629C24.3494 29.1033 24.6429 28.3904 24.6429 27.6469V8.02506H2.35714V27.6469ZM18.1429 12.6969C18.1429 12.4491 18.2407 12.2115 18.4148 12.0362C18.589 11.861 18.8252 11.7626 19.0714 11.7626C19.3177 11.7626 19.5539 11.861 19.728 12.0362C19.9022 12.2115 20 12.4491 20 12.6969V25.7782C20 26.026 19.9022 26.2636 19.728 26.4389C19.5539 26.6141 19.3177 26.7125 19.0714 26.7125C18.8252 26.7125 18.589 26.6141 18.4148 26.4389C18.2407 26.2636 18.1429 26.026 18.1429 25.7782V12.6969ZM12.5714 12.6969C12.5714 12.4491 12.6693 12.2115 12.8434 12.0362C13.0175 11.861 13.2537 11.7626 13.5 11.7626C13.7463 11.7626 13.9825 11.861 14.1566 12.0362C14.3307 12.2115 14.4286 12.4491 14.4286 12.6969V25.7782C14.4286 26.026 14.3307 26.2636 14.1566 26.4389C13.9825 26.6141 13.7463 26.7125 13.5 26.7125C13.2537 26.7125 13.0175 26.6141 12.8434 26.4389C12.6693 26.2636 12.5714 26.026 12.5714 25.7782V12.6969ZM7 12.6969C7 12.4491 7.09783 12.2115 7.27197 12.0362C7.44611 11.861 7.6823 11.7626 7.92857 11.7626C8.17484 11.7626 8.41103 11.861 8.58517 12.0362C8.75931 12.2115 8.85714 12.4491 8.85714 12.6969V25.7782C8.85714 26.026 8.75931 26.2636 8.58517 26.4389C8.41103 26.6141 8.17484 26.7125 7.92857 26.7125C7.6823 26.7125 7.44611 26.6141 7.27197 26.4389C7.09783 26.2636 7 26.026 7 25.7782V12.6969ZM25.5714 2.41881H18.6071L18.0616 1.32676C17.946 1.09329 17.768 0.896901 17.5476 0.759685C17.3272 0.62247 17.073 0.549872 16.8138 0.550059H10.1804C9.92174 0.549059 9.66807 0.621386 9.44841 0.758754C9.22876 0.896122 9.052 1.09297 8.93839 1.32676L8.39286 2.41881H1.42857C1.1823 2.41881 0.946113 2.51725 0.771972 2.69248C0.597831 2.86771 0.5 3.10537 0.5 3.35318L0.5 5.22193C0.5 5.46974 0.597831 5.70741 0.771972 5.88263C0.946113 6.05786 1.1823 6.15631 1.42857 6.15631H25.5714C25.8177 6.15631 26.0539 6.05786 26.228 5.88263C26.4022 5.70741 26.5 5.46974 26.5 5.22193V3.35318C26.5 3.10537 26.4022 2.86771 26.228 2.69248C26.0539 2.51725 25.8177 2.41881 25.5714 2.41881Z" fill="black"/>
</svg>
